<svg width="260" height="48" viewBox="0 0 260 48" fill="none" xmlns="http://www.w3.org/2000/svg">
<path d="M63.7727 23H62.3636C62.2803 22.5947 62.1345 22.2386 61.9261 21.9318C61.7216 21.625 61.4716 21.3674 61.1761 21.1591C60.8845 20.947 60.5606 20.7879 60.2045 20.6818C59.8485 20.5758 59.4773 20.5227 59.0909 20.5227C58.3864 20.5227 57.7481 20.7008 57.1761 21.0568C56.608 21.4129 56.1553 21.9375 55.8182 22.6307C55.4848 23.3239 55.3182 24.1742 55.3182 25.1818C55.3182 26.1894 55.4848 27.0398 55.8182 27.733C56.1553 28.4261 56.608 28.9508 57.1761 29.3068C57.7481 29.6629 58.3864 29.8409 59.0909 29.8409C59.4773 29.8409 59.8485 29.7879 60.2045 29.6818C60.5606 29.5758 60.8845 29.4186 61.1761 29.2102C61.4716 28.9981 61.7216 28.7386 61.9261 28.4318C62.1345 28.1212 62.2803 27.7652 62.3636 27.3636H63.7727C63.6667 27.9583 63.4735 28.4905 63.1932 28.9602C62.9129 29.4299 62.5644 29.8295 62.1477 30.1591C61.7311 30.4848 61.2633 30.733 60.7443 30.9034C60.2292 31.0739 59.678 31.1591 59.0909 31.1591C58.0985 31.1591 57.2159 30.9167 56.4432 30.4318C55.6705 29.947 55.0625 29.2576 54.6193 28.3636C54.1761 27.4697 53.9545 26.4091 53.9545 25.1818C53.9545 23.9545 54.1761 22.8939 54.6193 22C55.0625 21.1061 55.6705 20.4167 56.4432 19.9318C57.2159 19.447 58.0985 19.2045 59.0909 19.2045C59.678 19.2045 60.2292 19.2898 60.7443 19.4602C61.2633 19.6307 61.7311 19.8807 62.1477 20.2102C62.5644 20.536 62.9129 20.9337 63.1932 21.4034C63.4735 21.8693 63.6667 22.4015 63.7727 23ZM68.4361 31.2045C67.883 31.2045 67.3812 31.1004 66.9304 30.892C66.4796 30.6799 66.1217 30.375 65.8565 29.9773C65.5914 29.5758 65.4588 29.0909 65.4588 28.5227C65.4588 28.0227 65.5573 27.6174 65.7543 27.3068C65.9512 26.9924 66.2145 26.7462 66.544 26.5682C66.8736 26.3902 67.2372 26.2576 67.6349 26.1705C68.0365 26.0795 68.4399 26.0076 68.8452 25.9545C69.3755 25.8864 69.8054 25.8352 70.1349 25.8011C70.4683 25.7633 70.7107 25.7008 70.8622 25.6136C71.0175 25.5265 71.0952 25.375 71.0952 25.1591V25.1136C71.0952 24.553 70.9418 24.1174 70.6349 23.8068C70.3319 23.4962 69.8717 23.3409 69.2543 23.3409C68.6141 23.3409 68.1122 23.4811 67.7486 23.7614C67.3849 24.0417 67.1293 24.3409 66.9815 24.6591L65.7088 24.2045C65.9361 23.6742 66.2391 23.2614 66.6179 22.9659C67.0005 22.6667 67.4171 22.4583 67.8679 22.3409C68.3224 22.2197 68.7694 22.1591 69.2088 22.1591C69.4891 22.1591 69.8111 22.1932 70.1747 22.2614C70.5421 22.3258 70.8963 22.4602 71.2372 22.6648C71.5819 22.8693 71.8679 23.178 72.0952 23.5909C72.3224 24.0038 72.4361 24.5568 72.4361 25.25V31H71.0952V29.8182H71.027C70.9361 30.0076 70.7846 30.2102 70.5724 30.4261C70.3603 30.642 70.0781 30.8258 69.7259 30.9773C69.3736 31.1288 68.9437 31.2045 68.4361 31.2045ZM68.6406 30C69.1709 30 69.6179 29.8958 69.9815 29.6875C70.349 29.4792 70.6255 29.2102 70.8111 28.8807C71.0005 28.5511 71.0952 28.2045 71.0952 27.8409V26.6136C71.0384 26.6818 70.9134 26.7443 70.7202 26.8011C70.5308 26.8542 70.3111 26.9015 70.0611 26.9432C69.8149 26.9811 69.5743 27.0152 69.3395 27.0455C69.1084 27.072 68.9209 27.0947 68.777 27.1136C68.4285 27.1591 68.1027 27.233 67.7997 27.3352C67.5005 27.4337 67.258 27.5833 67.0724 27.7841C66.8906 27.9811 66.7997 28.25 66.7997 28.5909C66.7997 29.0568 66.9721 29.4091 67.3168 29.6477C67.6652 29.8826 68.1065 30 68.6406 30ZM78.679 22.2727V23.4091H74.1562V22.2727H78.679ZM75.4744 20.1818H76.8153V28.5C76.8153 28.8788 76.8703 29.1629 76.9801 29.3523C77.0938 29.5379 77.2377 29.6629 77.4119 29.7273C77.59 29.7879 77.7775 29.8182 77.9744 29.8182C78.1222 29.8182 78.2434 29.8106 78.3381 29.7955C78.4328 29.7765 78.5085 29.7614 78.5653 29.75L78.8381 30.9545C78.7472 30.9886 78.6203 31.0227 78.4574 31.0568C78.2945 31.0947 78.0881 31.1136 77.8381 31.1136C77.4593 31.1136 77.0881 31.0322 76.7244 30.8693C76.3646 30.7064 76.0653 30.4583 75.8267 30.125C75.5919 29.7917 75.4744 29.3712 75.4744 28.8636V20.1818ZM84.2614 31.1818C83.4205 31.1818 82.6951 30.9962 82.0852 30.625C81.4792 30.25 81.0114 29.7273 80.6818 29.0568C80.3561 28.3826 80.1932 27.5985 80.1932 26.7045C80.1932 25.8106 80.3561 25.0227 80.6818 24.3409C81.0114 23.6553 81.4697 23.1212 82.0568 22.7386C82.6477 22.3523 83.3371 22.1591 84.125 22.1591C84.5795 22.1591 85.0284 22.2348 85.4716 22.3864C85.9148 22.5379 86.3182 22.7841 86.6818 23.125C87.0455 23.4621 87.3352 23.9091 87.5511 24.4659C87.767 25.0227 87.875 25.7083 87.875 26.5227V27.0909H81.1477V25.9318H86.5114C86.5114 25.4394 86.4129 25 86.2159 24.6136C86.0227 24.2273 85.7462 23.9223 85.3864 23.6989C85.0303 23.4754 84.6098 23.3636 84.125 23.3636C83.5909 23.3636 83.1288 23.4962 82.7386 23.7614C82.3523 24.0227 82.0549 24.3636 81.8466 24.7841C81.6383 25.2045 81.5341 25.6553 81.5341 26.1364V26.9091C81.5341 27.5682 81.6477 28.1269 81.875 28.5852C82.1061 29.0398 82.4261 29.3864 82.8352 29.625C83.2443 29.8598 83.7197 29.9773 84.2614 29.9773C84.6136 29.9773 84.9318 29.928 85.2159 29.8295C85.5038 29.7273 85.7519 29.5758 85.9602 29.375C86.1686 29.1705 86.3295 28.9167 86.4432 28.6136L87.7386 28.9773C87.6023 29.4167 87.3731 29.803 87.0511 30.1364C86.7292 30.4659 86.3314 30.7235 85.858 30.9091C85.3845 31.0909 84.8523 31.1818 84.2614 31.1818ZM93.4375 34.4545C92.7898 34.4545 92.233 34.3712 91.767 34.2045C91.3011 34.0417 90.9129 33.8258 90.6023 33.5568C90.2955 33.2917 90.0511 33.0076 89.8693 32.7045L90.9375 31.9545C91.0587 32.1136 91.2121 32.2955 91.3977 32.5C91.5833 32.7083 91.8371 32.8883 92.1591 33.0398C92.4848 33.1951 92.911 33.2727 93.4375 33.2727C94.142 33.2727 94.7235 33.1023 95.1818 32.7614C95.6402 32.4205 95.8693 31.8864 95.8693 31.1591V29.3864H95.7557C95.6572 29.5455 95.517 29.7424 95.3352 29.9773C95.1572 30.2083 94.8996 30.4148 94.5625 30.5966C94.2292 30.7746 93.7784 30.8636 93.2102 30.8636C92.5057 30.8636 91.8731 30.697 91.3125 30.3636C90.7557 30.0303 90.3144 29.5455 89.9886 28.9091C89.6667 28.2727 89.5057 27.5 89.5057 26.5909C89.5057 25.697 89.6629 24.9186 89.9773 24.2557C90.2917 23.589 90.7292 23.0739 91.2898 22.7102C91.8504 22.3428 92.4981 22.1591 93.233 22.1591C93.8011 22.1591 94.2519 22.2538 94.5852 22.4432C94.9223 22.6288 95.1799 22.8409 95.358 23.0795C95.5398 23.3144 95.6799 23.5076 95.7784 23.6591H95.9148V22.2727H97.2102V31.25C97.2102 32 97.0398 32.6098 96.6989 33.0795C96.3617 33.553 95.9072 33.8996 95.3352 34.1193C94.767 34.3428 94.1345 34.4545 93.4375 34.4545ZM93.392 29.6591C93.9299 29.6591 94.3845 29.536 94.7557 29.2898C95.1269 29.0436 95.4091 28.6894 95.6023 28.2273C95.7955 27.7652 95.892 27.2121 95.892 26.5682C95.892 25.9394 95.7973 25.3845 95.608 24.9034C95.4186 24.4223 95.1383 24.0455 94.767 23.7727C94.3958 23.5 93.9375 23.3636 93.392 23.3636C92.8239 23.3636 92.3504 23.5076 91.9716 23.7955C91.5966 24.0833 91.3144 24.4697 91.125 24.9545C90.9394 25.4394 90.8466 25.9773 90.8466 26.5682C90.8466 27.1742 90.9413 27.7102 91.1307 28.1761C91.3239 28.6383 91.608 29.0019 91.983 29.267C92.3617 29.5284 92.8314 29.6591 93.392 29.6591ZM103.21 31.1818C102.422 31.1818 101.731 30.9943 101.136 30.6193C100.545 30.2443 100.083 29.7197 99.75 29.0455C99.4205 28.3712 99.2557 27.5833 99.2557 26.6818C99.2557 25.7727 99.4205 24.9792 99.75 24.3011C100.083 23.6231 100.545 23.0966 101.136 22.7216C101.731 22.3466 102.422 22.1591 103.21 22.1591C103.998 22.1591 104.688 22.3466 105.278 22.7216C105.873 23.0966 106.335 23.6231 106.665 24.3011C106.998 24.9792 107.165 25.7727 107.165 26.6818C107.165 27.5833 106.998 28.3712 106.665 29.0455C106.335 29.7197 105.873 30.2443 105.278 30.6193C104.688 30.9943 103.998 31.1818 103.21 31.1818ZM103.21 29.9773C103.809 29.9773 104.301 29.8239 104.688 29.517C105.074 29.2102 105.36 28.8068 105.545 28.3068C105.731 27.8068 105.824 27.2652 105.824 26.6818C105.824 26.0985 105.731 25.5549 105.545 25.0511C105.36 24.5473 105.074 24.1402 104.688 23.8295C104.301 23.5189 103.809 23.3636 103.21 23.3636C102.612 23.3636 102.119 23.5189 101.733 23.8295C101.347 24.1402 101.061 24.5473 100.875 25.0511C100.689 25.5549 100.597 26.0985 100.597 26.6818C100.597 27.2652 100.689 27.8068 100.875 28.3068C101.061 28.8068 101.347 29.2102 101.733 29.517C102.119 29.8239 102.612 29.9773 103.21 29.9773ZM109.212 31V22.2727H110.507V23.5909H110.598C110.757 23.1591 111.045 22.8087 111.462 22.5398C111.878 22.2708 112.348 22.1364 112.871 22.1364C112.969 22.1364 113.092 22.1383 113.24 22.142C113.388 22.1458 113.5 22.1515 113.575 22.1591V23.5227C113.53 23.5114 113.426 23.4943 113.263 23.4716C113.104 23.4451 112.935 23.4318 112.757 23.4318C112.333 23.4318 111.954 23.5208 111.621 23.6989C111.291 23.8731 111.03 24.1155 110.837 24.4261C110.647 24.733 110.553 25.0833 110.553 25.4773V31H109.212ZM115.165 31V22.2727H116.506V31H115.165ZM115.847 20.8182C115.585 20.8182 115.36 20.7292 115.17 20.5511C114.985 20.3731 114.892 20.1591 114.892 19.9091C114.892 19.6591 114.985 19.4451 115.17 19.267C115.36 19.089 115.585 19 115.847 19C116.108 19 116.331 19.089 116.517 19.267C116.706 19.4451 116.801 19.6591 116.801 19.9091C116.801 20.1591 116.706 20.3731 116.517 20.5511C116.331 20.7292 116.108 20.8182 115.847 20.8182ZM122.621 31.1818C121.78 31.1818 121.054 30.9962 120.445 30.625C119.839 30.25 119.371 29.7273 119.041 29.0568C118.715 28.3826 118.553 27.5985 118.553 26.7045C118.553 25.8106 118.715 25.0227 119.041 24.3409C119.371 23.6553 119.829 23.1212 120.416 22.7386C121.007 22.3523 121.696 22.1591 122.484 22.1591C122.939 22.1591 123.388 22.2348 123.831 22.3864C124.274 22.5379 124.678 22.7841 125.041 23.125C125.405 23.4621 125.695 23.9091 125.911 24.4659C126.126 25.0227 126.234 25.7083 126.234 26.5227V27.0909H119.507V25.9318H124.871C124.871 25.4394 124.772 25 124.575 24.6136C124.382 24.2273 124.106 23.9223 123.746 23.6989C123.39 23.4754 122.969 23.3636 122.484 23.3636C121.95 23.3636 121.488 23.4962 121.098 23.7614C120.712 24.0227 120.414 24.3636 120.206 24.7841C119.998 25.2045 119.893 25.6553 119.893 26.1364V26.9091C119.893 27.5682 120.007 28.1269 120.234 28.5852C120.465 29.0398 120.786 29.3864 121.195 29.625C121.604 29.8598 122.079 29.9773 122.621 29.9773C122.973 29.9773 123.291 29.928 123.575 29.8295C123.863 29.7273 124.111 29.5758 124.32 29.375C124.528 29.1705 124.689 28.9167 124.803 28.6136L126.098 28.9773C125.962 29.4167 125.732 29.803 125.411 30.1364C125.089 30.4659 124.691 30.7235 124.217 30.9091C123.744 31.0909 123.212 31.1818 122.621 31.1818ZM134.456 24.2273L133.251 24.5682C133.176 24.3674 133.064 24.1723 132.916 23.983C132.772 23.7898 132.575 23.6307 132.325 23.5057C132.075 23.3807 131.755 23.3182 131.365 23.3182C130.831 23.3182 130.386 23.4413 130.03 23.6875C129.678 23.9299 129.501 24.2386 129.501 24.6136C129.501 24.947 129.623 25.2102 129.865 25.4034C130.107 25.5966 130.486 25.7576 131.001 25.8864L132.297 26.2045C133.077 26.3939 133.659 26.6837 134.041 27.0739C134.424 27.4602 134.615 27.9583 134.615 28.5682C134.615 29.0682 134.471 29.5152 134.183 29.9091C133.899 30.303 133.501 30.6136 132.99 30.8409C132.479 31.0682 131.884 31.1818 131.206 31.1818C130.316 31.1818 129.579 30.9886 128.996 30.6023C128.412 30.2159 128.043 29.6515 127.888 28.9091L129.161 28.5909C129.282 29.0606 129.511 29.4129 129.848 29.6477C130.189 29.8826 130.634 30 131.183 30C131.808 30 132.304 29.8674 132.672 29.6023C133.043 29.3333 133.229 29.0114 133.229 28.6364C133.229 28.3333 133.123 28.0795 132.911 27.875C132.698 27.6667 132.373 27.5114 131.933 27.4091L130.479 27.0682C129.679 26.8788 129.092 26.5852 128.717 26.1875C128.346 25.786 128.161 25.2841 128.161 24.6818C128.161 24.1894 128.299 23.7538 128.575 23.375C128.856 22.9962 129.236 22.6989 129.717 22.483C130.202 22.267 130.751 22.1591 131.365 22.1591C132.229 22.1591 132.907 22.3485 133.399 22.7273C133.895 23.1061 134.248 23.6061 134.456 24.2273Z" fill="#1C1C1C"/>
<path d="M17.25 22.5C16.42 22.5 15.75 23.17 15.75 24C15.75 24.83 16.42 25.5 17.25 25.5C18.08 25.5 18.75 24.83 18.75 24C18.75 23.17 18.08 22.5 17.25 22.5ZM17.25 16.5C16.42 16.5 15.75 17.17 15.75 18C15.75 18.83 16.42 19.5 17.25 19.5C18.08 19.5 18.75 18.83 18.75 18C18.75 17.17 18.08 16.5 17.25 16.5ZM17.25 28.5C16.42 28.5 15.75 29.18 15.75 30C15.75 30.82 16.43 31.5 17.25 31.5C18.07 31.5 18.75 30.82 18.75 30C18.75 29.18 18.08 28.5 17.25 28.5ZM20.25 31H34.25V29H20.25V31ZM20.25 25H34.25V23H20.25V25ZM20.25 17V19H34.25V17H20.25Z" fill="#8B96A5"/>
</svg>
