<svg width="14" height="16" viewBox="0 0 14 16" fill="none" xmlns="http://www.w3.org/2000/svg">
<path d="M11 4H14V13.5C14 14.1875 13.75 14.7812 13.25 15.2812C12.75 15.7812 12.1875 16 11.5 16H2.5C1.8125 16 1.21875 15.7812 0.71875 15.2812C0.21875 14.7812 0 14.1875 0 13.5V4H3C3 3.28125 3.15625 2.625 3.53125 2C3.875 1.375 4.34375 0.90625 4.96875 0.53125C5.59375 0.1875 6.25 0 7 0C7.71875 0 8.375 0.1875 9 0.53125C9.625 0.90625 10.0938 1.375 10.4688 2C10.8125 2.625 11 3.28125 11 4ZM7 1.5C6.3125 1.5 5.71875 1.75 5.21875 2.25C4.71875 2.75 4.5 3.3125 4.5 4H9.5C9.5 3.3125 9.25 2.75 8.75 2.25C8.25 1.75 7.6875 1.5 7 1.5ZM12.5 13.5V5.5H11V6.75C11 6.96875 10.9062 7.15625 10.7812 7.28125C10.625 7.4375 10.4375 7.5 10.25 7.5C10.0312 7.5 9.84375 7.4375 9.71875 7.28125C9.5625 7.15625 9.5 6.96875 9.5 6.75V5.5H4.5V6.75C4.5 6.96875 4.40625 7.15625 4.28125 7.28125C4.125 7.4375 3.9375 7.5 3.75 7.5C3.53125 7.5 3.34375 7.4375 3.21875 7.28125C3.0625 7.15625 3 6.96875 3 6.75V5.5H1.5V13.5C1.5 13.7812 1.59375 14.0312 1.78125 14.2188C1.96875 14.4062 2.21875 14.5 2.5 14.5H11.5C11.75 14.5 12 14.4062 12.1875 14.2188C12.375 14.0312 12.5 13.7812 12.5 13.5Z" fill="#A2C4D4"/>
</svg>
